<svg xmlns="http://www.w3.org/2000/svg" xmlns:xlink="http://www.w3.org/1999/xlink" viewBox="0 0 294.04 284.51"><defs><style>.cls-1,.cls-2{stroke:#1d1d1b;stroke-miterlimit:10;}.cls-1{stroke-width:0.25px;fill:url(#linear-gradient);}.cls-2{fill:none;stroke-width:5px;}</style><linearGradient id="linear-gradient" x1="0.13" y1="142.25" x2="293.91" y2="142.25" gradientUnits="userSpaceOnUse"><stop offset="0.37" stop-color="#951b81"/><stop offset="0.55" stop-color="#811f82"/><stop offset="0.78" stop-color="#6d2383"/><stop offset="0.93" stop-color="#662483"/></linearGradient></defs><g id="Layer_3" data-name="Layer 3"><ellipse class="cls-1" cx="147.02" cy="142.25" rx="146.89" ry="142.13"/></g><g id="Layer_1" data-name="Layer 1"><path class="cls-2" d="M93.05,172.46H115.3c11.44,29.1,27,87.32,34.32,87.32s24-58.22,35.95-87.32h21.82l12.22-22.67s-68.74-86.93-69.39-86.93S103.45,121.26,80,150.62Z" transform="translate(-2.45 -5.7)"/><path class="cls-2" d="M80,150.62l-10-22.05s79.71-88.38,80.31-88.38c.76,0,79.87,88.38,79.87,88.38l-10.48,21.22" transform="translate(-2.45 -5.7)"/><path class="cls-2" d="M93.05,172.46s56.51-80,57-80,57.39,80,57.39,80" transform="translate(-2.45 -5.7)"/></g></svg>